# xmcd
# 
# Track frame offsets:
#     150
#     19372
#     42562
#     58737
#     77092
#     91982
#     104507
#     118355
#     128210
#     146402
#     162072
#     182165
# 
# Disc length: 2662
# 
# Revision: 4
# Processed by: cddbd v1.5.2PL0 Copyright (c) Steve Scherf et al.
# Submitted via: fre:ac v1.0.17
# 
DISCID=aa0a640c
DTITLE=Dinosaur Jr - Dinosaur
DYEAR=1985
DGENRE=Alt. Rock
TTITLE0=Bulbs Of Passion
TTITLE1=Forget The Swan
TTITLE2=Cats In A Bowl
TTITLE3=The Leper
TTITLE4=Does It Float
TTITLE5=Pointless
TTITLE6=Repulsion
TTITLE7=Gargoyle
TTITLE8=Severed Lips
TTITLE9=Mountain Man
TTITLE10=Quest
TTITLE11=Does It Float (Live)
EXTD=
EXTT0=
EXTT1=
EXTT2=
EXTT3=
EXTT4=
EXTT5=
EXTT6=
EXTT7=
EXTT8=
EXTT9=
EXTT10=
EXTT11=
PLAYORDER=
